<svg version="1.1" id="Layer_1" xmlns="http://www.w3.org/2000/svg" xmlns:xlink="http://www.w3.org/1999/xlink" x="0px" y="0px"
	 width="100%" viewBox="0 0 200 200" enable-background="new 0 0 200 200" xml:space="preserve">
<path fill="#000000" opacity="1.000000" stroke="none" 
	d="
M129.000000,201.000000 
	C86.000000,201.000000 43.500004,201.000000 1.000006,201.000000 
	C1.000004,134.333344 1.000004,67.666679 1.000002,1.000015 
	C67.666656,1.000010 134.333313,1.000010 200.999969,1.000005 
	C200.999985,67.666649 200.999985,134.333298 201.000000,200.999969 
	C177.166672,201.000000 153.333328,201.000000 129.000000,201.000000 
M96.890900,64.593315 
	C98.626221,63.240685 100.899200,62.226006 102.000061,60.474583 
	C105.930405,54.221523 102.572914,45.085743 95.576820,40.841732 
	C90.249413,37.609997 84.644836,36.990772 78.588188,36.910389 
	C59.365955,36.655266 49.016457,59.781254 51.610229,72.262009 
	C54.644661,86.863106 64.699181,95.627869 76.445221,103.094971 
	C79.965111,105.332611 83.597000,107.394058 87.361298,109.646141 
	C74.930054,128.484909 62.812988,146.847580 50.174614,166.000244 
	C53.937382,166.000244 56.318321,165.683624 58.576172,166.075745 
	C61.821728,166.639404 63.383957,164.795395 64.835678,162.544022 
	C71.997292,151.437469 79.144173,140.321411 86.287971,129.203384 
	C89.611465,124.030968 92.916168,118.846474 96.328972,113.511795 
	C103.513382,117.314560 110.262024,120.344467 116.437943,124.274429 
	C127.500778,131.314133 131.591782,135.600143 129.964279,148.113708 
	C129.414337,152.342117 124.593666,157.050934 120.445068,156.745804 
	C116.363640,156.445618 114.374008,153.420044 113.905067,149.320435 
	C113.725418,147.749939 112.924591,146.228119 112.284370,144.736694 
	C109.948151,139.294327 104.457832,137.152039 98.323059,139.237885 
	C93.486855,140.882217 90.962074,146.722656 92.695969,152.254700 
	C95.460434,161.074783 102.722176,165.910919 112.958557,166.018112 
	C135.830795,166.257614 147.687805,146.094009 141.809006,125.511673 
	C139.515366,117.481400 134.565399,110.520317 127.282959,105.651375 
	C121.329033,101.670670 115.485497,97.524849 109.247131,93.213181 
	C121.156441,75.284416 133.259811,57.063496 145.555725,38.552727 
	C137.644592,36.910572 132.752731,38.266693 128.631989,45.302372 
	C120.474419,59.230457 110.964844,72.365692 102.049591,85.852104 
	C100.736313,87.838730 99.739616,89.964851 96.687836,88.315239 
	C90.213661,84.815681 83.295578,81.997345 77.246223,77.888626 
	C70.247047,73.134796 63.867569,67.412079 64.976128,57.439346 
	C65.536140,52.401428 69.983696,45.871178 73.643532,46.262505 
	C78.532555,46.785263 80.348785,50.953747 81.619408,55.190159 
	C81.760117,55.659298 81.874611,56.136845 81.987068,56.613838 
	C83.703491,63.894081 88.925453,66.953133 96.890900,64.593315 
M71.998451,116.796333 
	C70.783768,110.252975 68.490089,108.830940 60.244183,108.959312 
	C56.015556,109.025146 53.325413,111.062157 52.172131,114.860207 
	C50.513317,120.323120 52.113834,124.863823 56.007465,126.994637 
	C64.160164,131.456238 71.952606,126.899727 71.998451,116.796333 
M150.202194,80.660469 
	C147.889832,74.935593 142.758301,75.476112 138.390411,76.243782 
	C135.801163,76.698853 132.211334,79.141228 131.613510,81.371460 
	C130.801605,84.400330 131.654190,88.497490 133.210999,91.367134 
	C134.821274,94.335342 142.868393,94.975006 146.004471,93.448395 
	C151.369919,90.836525 151.544952,86.267273 150.202194,80.660469 
z"/>
<path fill="#BD478B" opacity="1.000000" stroke="none" 
	d="
M96.537010,64.760498 
	C88.925453,66.953133 83.703491,63.894081 81.987068,56.613838 
	C81.874611,56.136845 81.760117,55.659298 81.619408,55.190159 
	C80.348785,50.953747 78.532555,46.785263 73.643532,46.262505 
	C69.983696,45.871178 65.536140,52.401428 64.976128,57.439346 
	C63.867569,67.412079 70.247047,73.134796 77.246223,77.888626 
	C83.295578,81.997345 90.213661,84.815681 96.687836,88.315239 
	C99.739616,89.964851 100.736313,87.838730 102.049591,85.852104 
	C110.964844,72.365692 120.474419,59.230457 128.631989,45.302372 
	C132.752731,38.266693 137.644592,36.910572 145.555725,38.552727 
	C133.259811,57.063496 121.156441,75.284416 109.247131,93.213181 
	C115.485497,97.524849 121.329033,101.670670 127.282959,105.651375 
	C134.565399,110.520317 139.515366,117.481400 141.809006,125.511673 
	C147.687805,146.094009 135.830795,166.257614 112.958557,166.018112 
	C102.722176,165.910919 95.460434,161.074783 92.695969,152.254700 
	C90.962074,146.722656 93.486855,140.882217 98.323059,139.237885 
	C104.457832,137.152039 109.948151,139.294327 112.284370,144.736694 
	C112.924591,146.228119 113.725418,147.749939 113.905067,149.320435 
	C114.374008,153.420044 116.363640,156.445618 120.445068,156.745804 
	C124.593666,157.050934 129.414337,152.342117 129.964279,148.113708 
	C131.591782,135.600143 127.500778,131.314133 116.437943,124.274429 
	C110.262024,120.344467 103.513382,117.314560 96.328972,113.511795 
	C92.916168,118.846474 89.611465,124.030968 86.287971,129.203384 
	C79.144173,140.321411 71.997292,151.437469 64.835678,162.544022 
	C63.383957,164.795395 61.821728,166.639404 58.576172,166.075745 
	C56.318321,165.683624 53.937382,166.000244 50.174614,166.000244 
	C62.812988,146.847580 74.930054,128.484909 87.361298,109.646141 
	C83.597000,107.394058 79.965111,105.332611 76.445221,103.094971 
	C64.699181,95.627869 54.644661,86.863106 51.610229,72.262009 
	C49.016457,59.781254 59.365955,36.655266 78.588188,36.910389 
	C84.644836,36.990772 90.249413,37.609997 95.576820,40.841732 
	C102.572914,45.085743 105.930405,54.221523 102.000061,60.474583 
	C100.899200,62.226006 98.626221,63.240685 96.537010,64.760498 
z"/>
<path fill="#BD478B" opacity="1.000000" stroke="none" 
	d="
M71.999069,117.219879 
	C71.952606,126.899727 64.160164,131.456238 56.007465,126.994637 
	C52.113834,124.863823 50.513317,120.323120 52.172131,114.860207 
	C53.325413,111.062157 56.015556,109.025146 60.244183,108.959312 
	C68.490089,108.830940 70.783768,110.252975 71.999069,117.219879 
z"/>
<path fill="#BD478B" opacity="1.000000" stroke="none" 
	d="
M150.469437,80.973373 
	C151.544952,86.267273 151.369919,90.836525 146.004471,93.448395 
	C142.868393,94.975006 134.821274,94.335342 133.210999,91.367134 
	C131.654190,88.497490 130.801605,84.400330 131.613510,81.371460 
	C132.211334,79.141228 135.801163,76.698853 138.390411,76.243782 
	C142.758301,75.476112 147.889832,74.935593 150.469437,80.973373 
z"/>
</svg>